<?xml version="1.0" encoding="UTF-8" standalone="no"?>
<svg
   xmlns:dc="http://purl.org/dc/elements/1.1/"
   xmlns:cc="http://creativecommons.org/ns#"
   xmlns:rdf="http://www.w3.org/1999/02/22-rdf-syntax-ns#"
   xmlns:svg="http://www.w3.org/2000/svg"
   xmlns="http://www.w3.org/2000/svg"
   xmlns:sodipodi="http://sodipodi.sourceforge.net/DTD/sodipodi-0.dtd"
   xmlns:inkscape="http://www.inkscape.org/namespaces/inkscape"
   version="1.2"
   width="581.64307"
   height="190.28937"
   viewBox="0 0 15389.305 5034.7396"
   preserveAspectRatio="xMidYMid"
   fill-rule="evenodd"
   stroke-width="28.222"
   stroke-linejoin="round"
   xml:space="preserve"
   id="svg320"
   sodipodi:docname="ditrit_logo.svg"
   inkscape:version="1.0 (4035a4f, 2020-05-01)"><metadata
   id="metadata324"><rdf:RDF><cc:Work
       rdf:about=""><dc:format>image/svg+xml</dc:format><dc:type
         rdf:resource="http://purl.org/dc/dcmitype/StillImage" /><dc:title></dc:title></cc:Work></rdf:RDF></metadata><sodipodi:namedview
   units="px"
   fit-margin-bottom="2"
   fit-margin-right="2"
   fit-margin-left="2"
   fit-margin-top="2"
   inkscape:pagecheckerboard="true"
   inkscape:document-rotation="0"
   pagecolor="#ffffff"
   bordercolor="#666666"
   borderopacity="1"
   objecttolerance="10"
   gridtolerance="10"
   guidetolerance="10"
   inkscape:pageopacity="0"
   inkscape:pageshadow="2"
   inkscape:window-width="1773"
   inkscape:window-height="1018"
   id="namedview322"
   showgrid="false"
   inkscape:snap-grids="false"
   inkscape:zoom="1"
   inkscape:cx="260.22711"
   inkscape:cy="41.978317"
   inkscape:window-x="50"
   inkscape:window-y="26"
   inkscape:window-maximized="0"
   inkscape:current-layer="layer2"
   lock-margins="true"><inkscape:grid
     id="grid990"
     type="xygrid"
     originx="1668.1574"
     originy="777.78809" /></sodipodi:namedview>
 <defs
   class="ClipPathGroup"
   id="defs192"><clipPath
     id="clipPath931"
     clipPathUnits="userSpaceOnUse"><rect
       y="-249.18976"
       x="-653.95514"
       height="727.60413"
       width="2210.0205"
       id="rect933"
       style="fill:#ff0000;fill-rule:evenodd;stroke:none;stroke-width:200;stroke-miterlimit:4;stroke-dasharray:none;stroke-opacity:1" /></clipPath><clipPath
     clipPathUnits="userSpaceOnUse"
     id="clipPath931-7"><rect
       style="fill:#ff0000;fill-rule:evenodd;stroke:none;stroke-width:200;stroke-miterlimit:4;stroke-dasharray:none;stroke-opacity:1"
       id="rect933-2"
       width="2210.0205"
       height="727.60413"
       x="-653.95514"
       y="-249.18976" /></clipPath><clipPath
     clipPathUnits="userSpaceOnUse"
     id="clipPath931-0"><rect
       style="fill:#ff0000;fill-rule:evenodd;stroke:none;stroke-width:200;stroke-miterlimit:4;stroke-dasharray:none;stroke-opacity:1"
       id="rect933-5"
       width="2210.0205"
       height="727.60413"
       x="-653.95514"
       y="-249.18976" /></clipPath></defs>
 <defs
   id="defs225" />
 <defs
   id="defs240" />
 <defs
   class="TextShapeIndex"
   id="defs244" />
 <defs
   class="EmbeddedBulletChars"
   id="defs276" />
 <g
   transform="translate(-1196.8228,4057.076)"
   id="g281">
  <g
   id="id2"
   class="Master_Slide">
   <g
   id="bg-id2"
   class="Background" />
   <g
   id="bo-id2"
   class="BackgroundObjects" />
  </g>
 </g>
 
<g
   id="g1502"
   transform="rotate(90,2603.1268,409.99028)" /><g
   transform="translate(1518.6748,627.12247)"
   inkscape:groupmode="layer"
   id="layer1"
   inkscape:label="Logo"
   style="display:inline" /><g
   transform="translate(1518.6748,627.12247)"
   inkscape:groupmode="layer"
   id="layer2"
   inkscape:label="Texte"><g
     id="g3006"
     transform="rotate(-90,998.69492,1890.2473)"><path
       id="path3000"
       clip-path="none"
       style="fill:#44445a;fill-opacity:1;fill-rule:evenodd;stroke:none;stroke-width:11.3386;stroke-linecap:round;paint-order:stroke fill markers"
       d="m 96.630859,1.8554688 c -8.368117,0.034532 -15.134809,7.333024 -15.134765,16.3242192 1.9e-5,9.015724 6.802351,16.324362 15.193359,16.324218 8.391007,1.42e-4 15.193337,-7.308495 15.193357,-16.324218 -2e-5,-9.0157236 -6.80235,-16.3243616 -15.193357,-16.3242192 -0.01953,-4.05e-5 -0.03906,-4.05e-5 -0.05859,0 z m -5.777343,6.4785156 c 0.0033,-7.7e-6 0.0065,-7.7e-6 0.0098,0 1.598493,-4.586e-4 2.894508,1.8176346 2.894531,4.0605466 -2.3e-5,2.242912 -1.296038,4.061006 -2.894531,4.060547 -1.598493,4.59e-4 -2.894508,-1.817635 -2.894531,-4.060547 1.5e-5,-2.237571 1.290088,-4.0534539 2.884766,-4.0605466 z m 11.652344,0 c 0.003,-7.7e-6 0.007,-7.7e-6 0.01,0 1.59773,0.00105 2.89256,1.8187036 2.89258,4.0605466 -2e-5,2.241843 -1.29485,4.059494 -2.89258,4.060547 -1.59849,4.54e-4 -2.894503,-1.817638 -2.894526,-4.060547 1.6e-5,-2.23757 1.290086,-4.0534536 2.884766,-4.0605466 z M 89.876953,24.75 96.689451,24.875 103.50195,25 c -1.16368,0.927235 -2.30918,1.896104 -3.609372,2.630859 -1.657429,0.99125 -3.71528,1.241428 -5.5625,0.6875 C 92.494639,27.714655 90.781591,26.487948 89.876953,24.75 Z"
       transform="matrix(26.458333,0,0,26.458333,-1559.5468,-623.29761)"
       sodipodi:nodetypes="ccccccsccccssccccscccccc" /><path
       sodipodi:nodetypes="ccccccsccccssccccscccccc"
       d="m 997.14465,4354.7004 c -221.40643,-0.9137 -400.44182,-194.0196 -400.44066,-431.9117 5.1e-4,-238.541 179.97887,-431.9154 401.99096,-431.9116 222.01205,0 401.99035,193.3706 401.99085,431.9116 -5e-4,238.5411 -179.9788,431.9154 -401.99085,431.9117 -0.51674,0 -1.03347,0 -1.5502,0 z M 844.28578,4183.2896 c 0.0873,2e-4 0.17198,2e-4 0.25929,0 42.29346,0.012 76.58386,-48.0915 76.58447,-107.4353 -6.1e-4,-59.3437 -34.29101,-107.4474 -76.58447,-107.4353 -42.29346,-0.012 -76.58385,48.0916 -76.58446,107.4353 3.9e-4,59.2024 34.13358,107.2477 76.3261,107.4353 z m 308.30162,0 c 0.079,2e-4 0.1852,2e-4 0.2646,0 42.2732,-0.028 76.5323,-48.1198 76.5328,-107.4353 -5e-4,-59.3154 -34.2596,-107.4074 -76.5328,-107.4353 -42.2934,-0.012 -76.5838,48.0917 -76.5844,107.4353 5e-4,59.2024 34.1336,107.2477 76.3261,107.4353 z m -334.13985,-434.3404 180.24734,-3.3073 180.24741,-3.3072 c -30.7891,-24.5331 -61.0971,-50.1678 -95.498,-69.6082 -43.8528,-26.2268 -98.30012,-32.8461 -147.17448,-18.1901 -48.56266,15.973 -93.88706,48.4296 -117.82227,94.4128 z"
       style="fill:#44445a;fill-opacity:1;fill-rule:evenodd;stroke:none;stroke-width:300;stroke-linecap:round;paint-order:stroke fill markers"
       clip-path="none"
       id="path3002" /></g><text
     xml:space="preserve"
     style="font-style:normal;font-variant:normal;font-weight:normal;font-stretch:normal;font-size:2540px;line-height:1.25;font-family:Casual;-inkscape-font-specification:'Casual, Normal';font-variant-ligatures:normal;font-variant-caps:normal;font-variant-numeric:normal;font-variant-east-asian:normal;letter-spacing:0px;word-spacing:0px;fill:#44445a;fill-opacity:1;stroke:none;stroke-width:1454.25"
     x="5133.2642"
     y="2453.1968"
     id="text1476"><tspan
       sodipodi:role="line"
       id="tspan1474"
       x="5133.2642"
       y="2453.1968"
       style="font-style:normal;font-variant:normal;font-weight:normal;font-stretch:normal;font-size:2540px;font-family:Casual;-inkscape-font-specification:'Casual, Normal';font-variant-ligatures:normal;font-variant-caps:normal;font-variant-numeric:normal;font-variant-east-asian:normal;fill:#44445a;fill-opacity:1;stroke-width:1454.25"
       dx="0">DitRit</tspan></text><text
     xml:space="preserve"
     style="font-style:normal;font-variant:normal;font-weight:normal;font-stretch:normal;font-size:1411.11px;line-height:1.25;font-family:Casual;-inkscape-font-specification:'Casual, Normal';font-variant-ligatures:normal;font-variant-caps:normal;font-variant-numeric:normal;font-variant-east-asian:normal;fill:#44445a;fill-opacity:1;stroke:none;stroke-width:746.707"
     x="2736.2285"
     y="3992.9453"
     id="text1622"><tspan
       sodipodi:role="line"
       id="tspan1620"
       x="2736.2285"
       y="3992.9453"
       style="font-style:normal;font-variant:normal;font-weight:normal;font-stretch:normal;font-size:1411.11px;font-family:Casual;-inkscape-font-specification:'Casual, Normal';font-variant-ligatures:normal;font-variant-caps:normal;font-variant-numeric:normal;font-variant-east-asian:normal;fill:#44445a;fill-opacity:1;stroke-width:746.707">Design it, Run it !</tspan></text><path
     sodipodi:open="true"
     sodipodi:arc-type="arc"
     sodipodi:end="6.2434388"
     sodipodi:start="3.1803326"
     sodipodi:ry="810.34521"
     sodipodi:rx="760.48242"
     sodipodi:cy="1258.7073"
     sodipodi:cx="998.6983"
     sodipodi:type="arc"
     id="path1125"
     style="fill:none;fill-rule:evenodd;stroke:#44445a;stroke-width:317.5;stroke-linecap:round;stroke-miterlimit:4;stroke-dasharray:none;stroke-opacity:1;paint-order:stroke fill markers"
     d="M 238.78647,1227.3224 A 760.48242,810.34521 0 0 1 998.31557,448.36216 760.48242,810.34521 0 0 1 1758.5801,1226.5074" /><path
     transform="rotate(90)"
     style="fill:none;fill-rule:evenodd;stroke:#44445a;stroke-width:317.5;stroke-linecap:round;stroke-miterlimit:4;stroke-dasharray:none;stroke-opacity:1;paint-order:stroke fill markers"
     id="path1127"
     sodipodi:type="arc"
     sodipodi:cx="1904.656"
     sodipodi:cy="-1615.8234"
     sodipodi:rx="760.48242"
     sodipodi:ry="810.34521"
     sodipodi:start="3.1803326"
     sodipodi:end="6.2434388"
     sodipodi:arc-type="arc"
     sodipodi:open="true"
     d="m 1144.7442,-1647.2082 a 760.48242,810.34521 0 0 1 759.5291,-778.9603 760.48242,810.34521 0 0 1 760.2645,778.1452" /><path
     sodipodi:open="true"
     sodipodi:arc-type="arc"
     sodipodi:end="6.2434388"
     sodipodi:start="3.1803326"
     sodipodi:ry="810.34521"
     sodipodi:rx="760.48242"
     sodipodi:cy="352.74957"
     sodipodi:cx="1904.656"
     sodipodi:type="arc"
     id="path1133"
     style="fill:none;fill-rule:evenodd;stroke:#44445a;stroke-width:317.5;stroke-linecap:round;stroke-miterlimit:4;stroke-dasharray:none;stroke-opacity:1;paint-order:stroke fill markers"
     transform="matrix(0,1,1,0,0,0)"
     d="m 1144.7442,321.36469 a 760.48242,810.34521 0 0 1 759.5291,-778.96023 760.48242,810.34521 0 0 1 760.2645,778.1452" /><path
     style="fill:none;fill-rule:evenodd;stroke:#44445a;stroke-width:317.5;stroke-linecap:round;stroke-miterlimit:4;stroke-dasharray:none;stroke-opacity:1;paint-order:stroke fill markers"
     id="path1135"
     sodipodi:type="arc"
     sodipodi:cx="998.6983"
     sodipodi:cy="-2521.7808"
     sodipodi:rx="760.48242"
     sodipodi:ry="810.34521"
     sodipodi:start="3.1803326"
     sodipodi:end="6.2434388"
     sodipodi:arc-type="arc"
     sodipodi:open="true"
     transform="scale(1,-1)"
     d="m 238.78647,-2553.1656 a 760.48242,810.34521 0 0 1 759.5291,-778.9603 760.48242,810.34521 0 0 1 760.26453,778.1452" /><path
     id="path953-1"
     clip-path="none"
     style="fill:#44445a;fill-opacity:1;fill-rule:evenodd;stroke:none;stroke-width:11.3386;stroke-linecap:round;paint-order:stroke fill markers"
     d="m 96.630859,1.8554688 c -8.368117,0.034532 -15.134809,7.333024 -15.134765,16.3242192 1.9e-5,9.015724 6.802351,16.324362 15.193359,16.324218 8.391007,1.42e-4 15.193337,-7.308495 15.193357,-16.324218 -2e-5,-9.0157236 -6.80235,-16.3243616 -15.193357,-16.3242192 -0.01953,-4.05e-5 -0.03906,-4.05e-5 -0.05859,0 z m -5.777343,6.4785156 c 0.0033,-7.7e-6 0.0065,-7.7e-6 0.0098,0 1.598493,-4.586e-4 2.894508,1.8176346 2.894531,4.0605466 -2.3e-5,2.242912 -1.296038,4.061006 -2.894531,4.060547 -1.598493,4.59e-4 -2.894508,-1.817635 -2.894531,-4.060547 1.5e-5,-2.237571 1.290088,-4.0534539 2.884766,-4.0605466 z m 11.652344,0 c 0.003,-7.7e-6 0.007,-7.7e-6 0.01,0 1.59773,0.00105 2.89256,1.8187036 2.89258,4.0605466 -2e-5,2.241843 -1.29485,4.059494 -2.89258,4.060547 -1.59849,4.54e-4 -2.894503,-1.817638 -2.894526,-4.060547 1.6e-5,-2.23757 1.290086,-4.0534536 2.884766,-4.0605466 z M 89.876953,24.75 96.689451,24.875 103.50195,25 c -1.16368,0.927235 -2.30918,1.896104 -3.609372,2.630859 -1.657429,0.99125 -3.71528,1.241428 -5.5625,0.6875 C 92.494639,27.714655 90.781591,26.487948 89.876953,24.75 Z"
     transform="matrix(26.458333,0,0,26.458333,-1559.5468,-623.29761)"
     sodipodi:nodetypes="ccccccsccccssccccscccccc" /><path
     sodipodi:nodetypes="ccccccsccccssccccscccccc"
     d="m 997.14465,4354.7004 c -221.40643,-0.9137 -400.44182,-194.0196 -400.44066,-431.9117 5.1e-4,-238.541 179.97887,-431.9154 401.99096,-431.9116 222.01205,0 401.99035,193.3706 401.99085,431.9116 -5e-4,238.5411 -179.9788,431.9154 -401.99085,431.9117 -0.51674,0 -1.03347,0 -1.5502,0 z M 844.28578,4183.2896 c 0.0873,2e-4 0.17198,2e-4 0.25929,0 42.29346,0.012 76.58386,-48.0915 76.58447,-107.4353 -6.1e-4,-59.3437 -34.29101,-107.4474 -76.58447,-107.4353 -42.29346,-0.012 -76.58385,48.0916 -76.58446,107.4353 3.9e-4,59.2024 34.13358,107.2477 76.3261,107.4353 z m 308.30162,0 c 0.079,2e-4 0.1852,2e-4 0.2646,0 42.2732,-0.028 76.5323,-48.1198 76.5328,-107.4353 -5e-4,-59.3154 -34.2596,-107.4074 -76.5328,-107.4353 -42.2934,-0.012 -76.5838,48.0917 -76.5844,107.4353 5e-4,59.2024 34.1336,107.2477 76.3261,107.4353 z m -334.13985,-434.3404 180.24734,-3.3073 180.24741,-3.3072 c -30.7891,-24.5331 -61.0971,-50.1678 -95.498,-69.6082 -43.8528,-26.2268 -98.30012,-32.8461 -147.17448,-18.1901 -48.56266,15.973 -93.88706,48.4296 -117.82227,94.4128 z"
     style="fill:#44445a;fill-opacity:1;fill-rule:evenodd;stroke:none;stroke-width:300;stroke-linecap:round;paint-order:stroke fill markers"
     clip-path="none"
     id="path2998" /></g></svg>
