<?xml version="1.0" encoding="UTF-8" standalone="no"?>
<svg
   xmlns:dc="http://purl.org/dc/elements/1.1/"
   xmlns:cc="http://creativecommons.org/ns#"
   xmlns:rdf="http://www.w3.org/1999/02/22-rdf-syntax-ns#"
   xmlns:svg="http://www.w3.org/2000/svg"
   xmlns="http://www.w3.org/2000/svg"
   xmlns:sodipodi="http://sodipodi.sourceforge.net/DTD/sodipodi-0.dtd"
   xmlns:inkscape="http://www.inkscape.org/namespaces/inkscape"
   inkscape:export-ydpi="71.999992"
   inkscape:export-xdpi="71.999992"
   inkscape:export-filename="/Users/Thierry/Sites/src.ditrit.github.io/static/favicon.png"
   inkscape:version="1.0 (4035a4f, 2020-05-01)"
   sodipodi:docname="favicon.svg"
   id="svg878"
   preserveAspectRatio="xMidYMid meet"
   viewBox="0 0 144.00002 144.00002"
   height="144.00002pt"
   width="144.00002pt"
   version="1.0">
  <defs
     id="defs882" />
  <sodipodi:namedview
     inkscape:current-layer="svg878"
     inkscape:window-maximized="0"
     inkscape:window-y="26"
     inkscape:window-x="50"
     inkscape:cy="90.692668"
     inkscape:cx="-47.938744"
     inkscape:zoom="1"
     fit-margin-bottom="0"
     fit-margin-right="0"
     fit-margin-left="0"
     fit-margin-top="0"
     showgrid="false"
     id="namedview880"
     inkscape:window-height="1018"
     inkscape:window-width="1773"
     inkscape:pageshadow="2"
     inkscape:pageopacity="0"
     guidetolerance="10"
     gridtolerance="10"
     objecttolerance="10"
     borderopacity="1"
     bordercolor="#666666"
     pagecolor="#ffffff" />
  <metadata
     id="metadata868">
Created by potrace 1.15, written by Peter Selinger 2001-2017
<rdf:RDF>
  <cc:Work
     rdf:about="">
    <dc:format>image/svg+xml</dc:format>
    <dc:type
       rdf:resource="http://purl.org/dc/dcmitype/StillImage" />
    <dc:title></dc:title>
  </cc:Work>
</rdf:RDF>
</metadata>
  <path
     sodipodi:open="true"
     sodipodi:arc-type="arc"
     sodipodi:end="6.2434388"
     sodipodi:start="3.1803326"
     sodipodi:ry="23.674566"
     sodipodi:rx="22.217802"
     sodipodi:cy="55.511532"
     sodipodi:cx="72.421051"
     sodipodi:type="arc"
     id="path1125"
     style="fill:none;fill-rule:evenodd;stroke:#44445a;stroke-width:13.2;stroke-linecap:round;stroke-miterlimit:4;stroke-dasharray:none;stroke-opacity:1;paint-order:stroke fill markers"
     d="M 50.219919,54.59461 A 22.217802,23.674566 0 0 1 72.409869,31.836969 22.217802,23.674566 0 0 1 94.621306,54.570798" />
  <path
     transform="rotate(90)"
     style="fill:none;fill-rule:evenodd;stroke:#44445a;stroke-width:13.2;stroke-linecap:round;stroke-miterlimit:4;stroke-dasharray:none;stroke-opacity:1;paint-order:stroke fill markers"
     id="path1127"
     sodipodi:type="arc"
     sodipodi:cx="72.420944"
     sodipodi:cy="-88.488487"
     sodipodi:rx="22.217802"
     sodipodi:ry="23.674566"
     sodipodi:start="3.1803326"
     sodipodi:end="6.2434388"
     sodipodi:arc-type="arc"
     sodipodi:open="true"
     d="m 50.219812,-89.405409 a 22.217802,23.674566 0 0 1 22.18995,-22.757641 22.217802,23.674566 0 0 1 22.211437,22.733829" />
  <path
     sodipodi:open="true"
     sodipodi:arc-type="arc"
     sodipodi:end="6.2434388"
     sodipodi:start="3.1803326"
     sodipodi:ry="23.674566"
     sodipodi:rx="22.217802"
     sodipodi:cy="55.511536"
     sodipodi:cx="72.420944"
     sodipodi:type="arc"
     id="path1133"
     style="fill:none;fill-rule:evenodd;stroke:#44445a;stroke-width:13.2;stroke-linecap:round;stroke-miterlimit:4;stroke-dasharray:none;stroke-opacity:1;paint-order:stroke fill markers"
     transform="matrix(0,1,1,0,0,0)"
     d="m 50.219812,54.594614 a 22.217802,23.674566 0 0 1 22.18995,-22.757642 22.217802,23.674566 0 0 1 22.211437,22.73383" />
  <path
     style="fill:none;fill-rule:evenodd;stroke:#44445a;stroke-width:13.2;stroke-linecap:round;stroke-miterlimit:4;stroke-dasharray:none;stroke-opacity:1;paint-order:stroke fill markers"
     id="path1135"
     sodipodi:type="arc"
     sodipodi:cx="72.421051"
     sodipodi:cy="-88.48848"
     sodipodi:rx="22.217802"
     sodipodi:ry="23.674566"
     sodipodi:start="3.1803326"
     sodipodi:end="6.2434388"
     sodipodi:arc-type="arc"
     sodipodi:open="true"
     transform="scale(1,-1)"
     d="m 50.219919,-89.405402 a 22.217802,23.674566 0 0 1 22.18995,-22.757638 22.217802,23.674566 0 0 1 22.211437,22.733827" />
  <path
     id="path953-1"
     clip-path="none"
     style="fill:#44445a;fill-opacity:1;fill-rule:evenodd;stroke:none;stroke-width:8.76463;stroke-linecap:round;paint-order:stroke fill markers"
     d="M 72.375323,2.1122625e-5 C 65.906843,0.02671507 60.676251,5.6683838 60.676282,12.618499 c 2e-5,6.96907 5.258152,12.618582 11.744328,12.618468 6.486177,1.14e-4 11.744319,-5.649398 11.744329,-12.618468 C 84.164929,5.6494198 78.906787,-9.224937e-5 72.42061,2.1122625e-5 c -0.01515,-3.0919635e-5 -0.0302,-3.0919635e-5 -0.04524,0 z M 67.909487,5.007858 c 0.0021,-1.03e-5 0.0052,-1.03e-5 0.0072,0 1.23562,-3.608e-4 2.237427,1.4050088 2.237448,3.1387655 -2.1e-5,1.7337464 -1.001828,3.1391155 -2.237448,3.1387655 -1.235621,3.5e-4 -2.237428,-1.4050191 -2.237448,-3.1387655 1e-5,-1.7296238 0.99723,-3.1332825 2.229893,-3.1387655 z m 9.007158,0 c 0.0021,-1.03e-5 0.0052,-1.03e-5 0.0072,0 1.235034,8.142e-4 2.235923,1.4058436 2.235933,3.1387655 -1e-5,1.7329219 -1.000899,3.1379515 -2.235933,3.1387655 -1.23562,3.5e-4 -2.237427,-1.4050191 -2.237448,-3.1387655 1.1e-5,-1.7296238 0.997231,-3.1332825 2.229904,-3.1387655 z m -9.76203,12.689428 5.265995,0.09657 5.265995,0.09657 c -0.899514,0.716748 -1.784969,1.465673 -2.790012,2.033626 -1.281176,0.76623 -2.871878,0.959622 -4.299757,0.531436 -1.418778,-0.46666 -2.742953,-1.414893 -3.442221,-2.75831 z"
     sodipodi:nodetypes="ccccccsccccssccccscccccc" />
  <path
     sodipodi:nodetypes="ccccccsccccssccccscccccc"
     d="m 72.375323,144.00001 c -6.46848,-0.0267 -11.699072,-5.66838 -11.699041,-12.61849 2e-5,-6.96907 5.258162,-12.61858 11.744328,-12.61847 6.486177,0 11.744319,5.6494 11.744329,12.61847 -1e-5,6.96908 -5.258152,12.61859 -11.744329,12.61849 -0.01515,0 -0.0302,0 -0.04524,0 z m -4.465836,-5.00784 c 0.0021,0 0.0052,0 0.0072,0 1.23562,3.4e-4 2.237427,-1.40502 2.237448,-3.13878 -2.1e-5,-1.73374 -1.001828,-3.13911 -2.237448,-3.13876 -1.235621,-3.5e-4 -2.237428,1.40502 -2.237448,3.13876 1e-5,1.72963 0.99723,3.1333 2.229903,3.13878 z m 9.007158,0 c 0.0021,0 0.0052,0 0.0072,0 1.235034,-7.7e-4 2.235923,-1.40584 2.235933,-3.13878 -1e-5,-1.73292 -1.000899,-3.13794 -2.235933,-3.13876 -1.23562,-3.5e-4 -2.237427,1.40502 -2.237448,3.13876 2.1e-5,1.72963 0.997231,3.1333 2.229904,3.13878 z m -9.76203,-12.68944 5.265995,-0.0966 5.266006,-0.0966 c -0.899514,-0.71674 -1.78498,-1.46567 -2.790013,-2.03363 -1.281176,-0.76623 -2.871877,-0.95961 -4.299767,-0.53144 -1.418778,0.46666 -2.742942,1.4149 -3.442221,2.75831 z"
     style="fill:#44445a;fill-opacity:1;fill-rule:evenodd;stroke:none;stroke-width:8.76463;stroke-linecap:round;paint-order:stroke fill markers"
     clip-path="none"
     id="path2998" />
  <path
     sodipodi:nodetypes="ccccccsccccssccccscccccc"
     d="M 2.3122625e-5,72.045293 C 0.02671707,78.513773 5.6683858,83.744365 12.618501,83.744334 c 6.96907,-2e-5 12.618582,-5.258152 12.618468,-11.744328 1.14e-4,-6.486177 -5.649398,-11.744319 -12.618468,-11.744329 -6.9690792,1e-5 -12.61859124937,5.258152 -12.618477877375,11.744329 -3.0919635e-5,0.01515 -3.0919635e-5,0.0302 0,0.04524 z M 5.00786,76.511129 c -1.03e-5,-0.0021 -1.03e-5,-0.0052 0,-0.0072 -3.608e-4,-1.23562 1.4050088,-2.237427 3.1387655,-2.237448 1.7337464,2.1e-5 3.1391155,1.001828 3.1387655,2.237448 3.5e-4,1.235621 -1.4050191,2.237428 -3.1387655,2.237448 -1.7296238,-1e-5 -3.1332825,-0.99723 -3.1387655,-2.229893 z m 0,-9.007158 c -1.03e-5,-0.0021 -1.03e-5,-0.0052 0,-0.0072 8.142e-4,-1.235034 1.4058436,-2.235923 3.1387655,-2.235933 1.7329219,10e-6 3.1379515,1.000899 3.1387655,2.235933 3.5e-4,1.23562 -1.4050191,2.237427 -3.1387655,2.237448 C 6.4170017,69.734208 5.013343,68.736988 5.00786,67.504315 Z m 12.689428,9.76203 0.09657,-5.265995 0.09657,-5.265995 c 0.716748,0.899514 1.465673,1.784969 2.033626,2.790012 0.76623,1.281176 0.959622,2.871878 0.531436,4.299757 -0.46666,1.418778 -1.414893,2.742953 -2.75831,3.442221 z"
     style="fill:#44445a;fill-opacity:1;fill-rule:evenodd;stroke:none;stroke-width:8.76463;stroke-linecap:round;paint-order:stroke fill markers"
     clip-path="none"
     id="path2104" />
  <path
     id="path2106"
     clip-path="none"
     style="fill:#44445a;fill-opacity:1;fill-rule:evenodd;stroke:none;stroke-width:8.76463;stroke-linecap:round;paint-order:stroke fill markers"
     d="m 144.00001,72.045293 c -0.0267,6.46848 -5.66838,11.699072 -12.61849,11.699041 -6.96907,-2e-5 -12.61858,-5.258162 -12.61847,-11.744328 0,-6.486177 5.6494,-11.744319 12.61847,-11.744329 6.96908,1e-5 12.61859,5.258152 12.61849,11.744329 0,0.01515 0,0.0302 0,0.04524 z m -5.00784,4.465836 c 0,-0.0021 0,-0.0052 0,-0.0072 3.4e-4,-1.23562 -1.40502,-2.237427 -3.13878,-2.237448 -1.73374,2.1e-5 -3.13911,1.001828 -3.13876,2.237448 -3.5e-4,1.235621 1.40502,2.237428 3.13876,2.237448 1.72963,-1e-5 3.1333,-0.99723 3.13878,-2.229903 z m 0,-9.007158 c 0,-0.0021 0,-0.0052 0,-0.0072 -7.7e-4,-1.235034 -1.40584,-2.235923 -3.13878,-2.235933 -1.73292,10e-6 -3.13794,1.000899 -3.13876,2.235933 -3.5e-4,1.23562 1.40502,2.237427 3.13876,2.237448 1.72963,-2.1e-5 3.1333,-0.997231 3.13878,-2.229904 z m -12.68944,9.76203 -0.0966,-5.265995 -0.0966,-5.266006 c -0.71674,0.899514 -1.46567,1.78498 -2.03363,2.790013 -0.76623,1.281176 -0.95961,2.871877 -0.53144,4.299767 0.46666,1.418778 1.4149,2.742942 2.75831,3.442221 z"
     sodipodi:nodetypes="ccccccsccccssccccscccccc" />
</svg>
